<svg width="600" height="600" viewBox="0 0 600 600" fill="none" xmlns="http://www.w3.org/2000/svg">
<circle cx="300" cy="300" r="252" fill="#EBF1F7"/>
<path d="M206.607 284.794H370.977C383.095 284.794 394.716 289.608 403.285 298.176C411.853 306.745 416.667 318.366 416.667 330.484C416.667 342.603 411.854 354.225 403.285 362.795C394.717 371.365 383.096 376.181 370.977 376.184H206.607" fill="#3843D0"/>
<path d="M206.607 274.974V118.774C206.607 112.881 208.948 107.229 213.115 103.062C217.282 98.8952 222.934 96.5542 228.827 96.5542H484.827C487.746 96.5529 490.636 97.1267 493.333 98.2427C496.03 99.3588 498.481 100.995 500.546 103.059C502.61 105.122 504.248 107.572 505.365 110.269C506.482 112.965 507.057 115.855 507.057 118.774V456.854C507.057 462.75 504.715 468.404 500.546 472.573C496.377 476.742 490.723 479.084 484.827 479.084H228.827C225.908 479.084 223.018 478.509 220.322 477.392C217.625 476.275 215.175 474.637 213.112 472.573C211.048 470.508 209.412 468.058 208.296 465.361C207.18 462.663 206.606 459.773 206.607 456.854V376.184" stroke="#040237" stroke-width="3" stroke-linecap="round" stroke-linejoin="round"/>
<path d="M458.907 148.264H332.887C307.653 148.264 287.197 168.72 287.197 193.954V193.964C287.197 219.198 307.653 239.654 332.887 239.654H458.907C484.141 239.654 504.597 219.198 504.597 193.964V193.954C504.597 168.72 484.141 148.264 458.907 148.264Z" fill="#6AC7B7"/>
<path d="M315.787 194.964H458.347" stroke="#040237" stroke-width="3" stroke-linecap="round" stroke-linejoin="round"/>
<path d="M347.157 180.184H458.347" stroke="#040237" stroke-width="3" stroke-linecap="round" stroke-linejoin="round"/>
<path d="M315.787 180.184H336.587" stroke="#040237" stroke-width="3" stroke-linecap="round" stroke-linejoin="round"/>
<path d="M315.787 208.894H382.547" stroke="#040237" stroke-width="3" stroke-linecap="round" stroke-linejoin="round"/>
<path d="M232.927 331.604H375.487" stroke="white" stroke-width="2.8" stroke-linecap="round" stroke-linejoin="round"/>
<path d="M264.297 316.824H375.487" stroke="white" stroke-width="2.8" stroke-linecap="round" stroke-linejoin="round"/>
<path d="M232.927 316.824H253.727" stroke="white" stroke-width="2.8" stroke-linecap="round" stroke-linejoin="round"/>
<path d="M232.927 345.524H299.687" stroke="white" stroke-width="2.8" stroke-linecap="round" stroke-linejoin="round"/>
<path d="M206.607 413.664H507.077" stroke="#040237" stroke-width="3" stroke-linecap="round" stroke-linejoin="round"/>
<path d="M210.877 287.594V373.384H154.547C143.284 373.212 132.541 368.617 124.637 360.591C116.733 352.566 112.302 341.753 112.302 330.489C112.302 319.225 116.733 308.412 124.637 300.387C132.541 292.361 143.284 287.766 154.547 287.594H210.897H210.877ZM213.697 284.794H154.547C142.429 284.794 130.808 289.608 122.239 298.176C113.671 306.745 108.857 318.366 108.857 330.484V330.484C108.857 342.603 113.671 354.225 122.239 362.795C130.807 371.365 142.429 376.181 154.547 376.184H213.697V284.794Z" fill="#3843D0"/>
<path d="M155.457 363.704C173.804 363.704 188.677 348.831 188.677 330.484C188.677 312.137 173.804 297.264 155.457 297.264C137.11 297.264 122.237 312.137 122.237 330.484C122.237 348.831 137.11 363.704 155.457 363.704Z" fill="#6AC7B7"/>
<path d="M142.667 322.844V332.554C142.599 334.319 143.234 336.038 144.432 337.335C145.63 338.632 147.293 339.401 149.057 339.474V339.474C150.823 339.404 152.489 338.636 153.689 337.338C154.889 336.041 155.525 334.32 155.457 332.554V329.754C155.392 327.99 156.029 326.272 157.229 324.977C158.429 323.681 160.093 322.915 161.857 322.844C163.622 322.912 165.288 323.678 166.488 324.974C167.688 326.27 168.325 327.989 168.257 329.754V339.474" stroke="#040237" stroke-width="3" stroke-linecap="round" stroke-linejoin="round"/>
<path d="M208.017 284.794H205.197V376.184H208.017V284.794Z" fill="#0044CC"/>
<path d="M465.577 352.114C478.672 352.114 489.287 340.151 489.287 325.394C489.287 310.637 478.672 298.674 465.577 298.674C452.482 298.674 441.867 310.637 441.867 325.394C441.867 340.151 452.482 352.114 465.577 352.114Z" fill="white"/>
<path fill-rule="evenodd" clip-rule="evenodd" d="M437.847 337.084C435.907 350.754 433.217 365.554 447.407 372.374C454.867 375.954 467.407 375.244 474.407 370.854C479.557 367.624 483.407 362.574 486.007 357.084C488.607 351.594 490.167 345.664 491.567 339.744C493.437 331.834 494.947 321.684 492.367 313.964C490.257 307.634 485.487 302.494 480.107 298.544C471.107 291.914 460.047 289.884 448.827 289.684C447.087 289.684 445.197 289.764 443.877 290.884C442.097 292.384 442.177 303.284 443.307 306.384C457.927 309.384 471.847 310.274 486.457 313.274C487.594 319.843 487.89 326.53 487.337 333.174C487.047 333.724 480.007 334.044 474.697 335.174C470.627 336.054 467.027 338.324 463.317 340.174C460.267 341.674 455.987 343.544 452.627 343.054C447.987 342.374 443.627 337.174 439.627 336.944C438.667 336.894 437.957 336.364 437.847 337.084Z" fill="#6AC7B7"/>
<path d="M485.917 315.434C488.187 320.626 488.72 326.411 487.438 331.93C486.155 337.45 483.125 342.407 478.798 346.065C474.471 349.724 469.078 351.887 463.423 352.235C457.767 352.582 452.151 351.094 447.409 347.992C442.667 344.891 439.053 340.341 437.105 335.02C435.157 329.7 434.978 323.892 436.596 318.462C438.214 313.032 441.542 308.269 446.084 304.882C450.627 301.495 456.141 299.665 461.807 299.664" stroke="#040237" stroke-width="3" stroke-linecap="round" stroke-linejoin="round"/>
<path d="M451.807 320.034L448.297 337.824L458.127 337.584" stroke="#040237" stroke-width="3" stroke-linecap="round" stroke-linejoin="round"/>
<path d="M245.717 217.904C258.381 217.904 268.647 206.331 268.647 192.054C268.647 177.778 258.381 166.204 245.717 166.204C233.053 166.204 222.787 177.778 222.787 192.054C222.787 206.331 233.053 217.904 245.717 217.904Z" fill="white"/>
<path fill-rule="evenodd" clip-rule="evenodd" d="M266.387 160.974C263.76 158.633 260.501 157.12 257.017 156.624C249.128 155.431 241.061 156.553 233.797 159.854C229.923 161.544 226.384 163.915 223.347 166.854C221.66 168.64 220.305 170.712 219.347 172.974C218.331 175.105 217.566 177.347 217.067 179.654C215.317 188.184 217.697 196.654 221.797 204.184C223.956 207.964 226.403 211.571 229.117 214.974C230.407 216.654 231.727 218.304 233.057 219.974L234.697 221.974L235.527 222.974L235.787 223.314L235.977 223.554L236.077 223.674C236.34 224.081 236.723 224.396 237.172 224.575C237.622 224.755 238.117 224.789 238.587 224.674C239.057 224.545 239.472 224.264 239.766 223.875C240.061 223.487 240.219 223.012 240.217 222.524C238.267 207.604 244.307 192.344 255.437 182.314C258.561 179.521 262.074 177.197 265.867 175.414C266.112 175.295 266.328 175.124 266.5 174.914C266.673 174.703 266.798 174.458 266.867 174.194C267.328 174.357 267.834 174.346 268.287 174.162C268.74 173.977 269.11 173.633 269.327 173.194C271.827 169.084 269.737 164.064 266.387 160.974Z" fill="#FEC14C"/>
<path d="M228.737 179.974C226.708 184.593 226.224 189.744 227.359 194.659C228.493 199.575 231.184 203.993 235.032 207.256C238.879 210.519 243.678 212.452 248.713 212.768C253.748 213.084 258.75 211.766 262.975 209.009C267.201 206.253 270.423 202.206 272.163 197.47C273.902 192.735 274.066 187.564 272.63 182.728C271.194 177.891 268.235 173.648 264.193 170.63C260.151 167.611 255.242 165.978 250.197 165.974" stroke="#040237" stroke-width="3" stroke-linecap="round" stroke-linejoin="round"/>
<path d="M259.097 184.064L262.227 199.904L253.477 199.694" stroke="#040237" stroke-width="3" stroke-linecap="round" stroke-linejoin="round"/>
<path d="M154.757 305.164V140.264C154.757 113.134 132.547 90.4043 105.417 90.9243C92.6721 91.1831 80.5438 96.4597 71.6662 105.608C62.7886 114.756 57.8785 127.037 58.0023 139.784C58.1261 152.531 63.2738 164.715 72.3274 173.689C81.381 182.663 93.6095 187.703 106.357 187.714V187.714L194.807 187.844" stroke="#0044CC" stroke-width="3" stroke-miterlimit="10" stroke-linecap="round"/>
<path d="M72.4072 113.594C77.9246 113.594 82.3972 109.122 82.3972 103.604C82.3972 98.0869 77.9246 93.6143 72.4072 93.6143C66.8899 93.6143 62.4172 98.0869 62.4172 103.604C62.4172 109.122 66.8899 113.594 72.4072 113.594Z" fill="#3843D0"/>
<path d="M196.337 177.814H179.987C178.982 177.814 178.167 178.629 178.167 179.634V195.984C178.167 196.989 178.982 197.804 179.987 197.804H196.337C197.342 197.804 198.157 196.989 198.157 195.984V179.634C198.157 178.629 197.342 177.814 196.337 177.814Z" fill="#6AC7B7"/>
<path d="M483.537 445.284L450.687 459.954V430.614L483.537 445.284Z" stroke="#0044CC" stroke-width="3" stroke-linecap="round" stroke-linejoin="round"/>
<path d="M483.537 445.284H444.057" stroke="#0044CC" stroke-width="3" stroke-linecap="round" stroke-linejoin="round"/>
</svg>
