<?xml version="1.0" encoding="UTF-8"?> <svg xmlns="http://www.w3.org/2000/svg" xmlns:xlink="http://www.w3.org/1999/xlink" width="289.1" height="240" viewBox="0 0 289.1 240"><defs><style>.cls-1{isolation:isolate;}.cls-2{fill:#cff2f4;}.cls-3{fill:url(#_ÂÁ_Ï_ÌÌ_È_ËÂÌÚ_189);}.cls-4{fill:#fc8681;}.cls-36,.cls-5{fill:#ea6a6b;}.cls-6{fill:#744ca0;}.cls-7{fill:#233676;}.cls-8{fill:#d9d6fd;}.cls-25,.cls-9{fill:#fff;}.cls-10{opacity:0.81;fill:url(#linear-gradient);}.cls-11{fill:#34c5fd;}.cls-12,.cls-16,.cls-25,.cls-26,.cls-29{opacity:0.5;}.cls-12,.cls-29,.cls-30,.cls-31,.cls-32,.cls-36,.cls-37{mix-blend-mode:multiply;}.cls-12{fill:url(#_ÂÁ_Ï_ÌÌ_È_ËÂÌÚ_9);}.cls-13{fill:#fc8e81;}.cls-14{fill:url(#_ÂÁ_Ï_ÌÌ_È_ËÂÌÚ_56);}.cls-15,.cls-22{fill:#fcafa6;}.cls-15{opacity:0.8;}.cls-16{fill:url(#_ÂÁ_Ï_ÌÌ_È_ËÂÌÚ_452);}.cls-17{fill:url(#_ÂÁ_Ï_ÌÌ_È_ËÂÌÚ_56-2);}.cls-18{fill:url(#_ÂÁ_Ï_ÌÌ_È_ËÂÌÚ_46);}.cls-19{fill:url(#_ÂÁ_Ï_ÌÌ_È_ËÂÌÚ_46-2);}.cls-20{fill:url(#_ÂÁ_Ï_ÌÌ_È_ËÂÌÚ_452-2);}.cls-21{fill:url(#_ÂÁ_Ï_ÌÌ_È_ËÂÌÚ_452-3);}.cls-23{fill:#fd8e98;}.cls-24{fill:#fbb6ae;}.cls-25{mix-blend-mode:soft-light;}.cls-26{fill:url(#_ÂÁ_Ï_ÌÌ_È_ËÂÌÚ_22);}.cls-27{fill:#f47c80;}.cls-28{fill:#f97d7c;}.cls-29{fill:url(#_ÂÁ_Ï_ÌÌ_È_ËÂÌÚ_9-2);}.cls-30{fill:#b194c5;}.cls-30,.cls-36,.cls-37{opacity:0.2;}.cls-31,.cls-32{opacity:0.3;}.cls-31{fill:url(#_ÂÁ_Ï_ÌÌ_È_ËÂÌÚ_153);}.cls-32{fill:url(#_ÂÁ_Ï_ÌÌ_È_ËÂÌÚ_153-2);}.cls-33{fill:url(#_ÂÁ_Ï_ÌÌ_È_ËÂÌÚ_189-2);}.cls-34{fill:url(#_ÂÁ_Ï_ÌÌ_È_ËÂÌÚ_326);}.cls-35{fill:url(#_ÂÁ_Ï_ÌÌ_È_ËÂÌÚ_322);}.cls-37{fill:#eabfc7;}</style><linearGradient id="_ÂÁ_Ï_ÌÌ_È_ËÂÌÚ_189" x1="90.19" y1="246.11" x2="90.19" y2="224.23" gradientUnits="userSpaceOnUse"><stop offset="0" stop-color="#816ce9"></stop><stop offset="1" stop-color="#c1a2e9"></stop></linearGradient><linearGradient id="linear-gradient" x1="102.25" y1="71.04" x2="158.33" y2="30.29" gradientUnits="userSpaceOnUse"><stop offset="0" stop-color="#2bd4ec"></stop><stop offset="1" stop-color="#3d86e7"></stop></linearGradient><linearGradient id="_ÂÁ_Ï_ÌÌ_È_ËÂÌÚ_9" x1="172.15" y1="152.58" x2="172.15" y2="87.01" gradientUnits="userSpaceOnUse"><stop offset="0" stop-color="#caebfd"></stop><stop offset="1" stop-color="#755cb9"></stop></linearGradient><linearGradient id="_ÂÁ_Ï_ÌÌ_È_ËÂÌÚ_56" x1="212.28" y1="228.39" x2="212.28" y2="72.1" gradientUnits="userSpaceOnUse"><stop offset="0.02" stop-color="#fdc0a7"></stop><stop offset="1" stop-color="#fd9393"></stop></linearGradient><linearGradient id="_ÂÁ_Ï_ÌÌ_È_ËÂÌÚ_452" x1="178.99" y1="163.1" x2="244.01" y2="163.1" gradientUnits="userSpaceOnUse"><stop offset="0" stop-color="#fd7c7d"></stop><stop offset="0.98" stop-color="#fd9c89"></stop></linearGradient><linearGradient id="_ÂÁ_Ï_ÌÌ_È_ËÂÌÚ_56-2" x1="82.51" y1="253.78" x2="82.51" y2="109.23" xlink:href="#_ÂÁ_Ï_ÌÌ_È_ËÂÌÚ_56"></linearGradient><linearGradient id="_ÂÁ_Ï_ÌÌ_È_ËÂÌÚ_46" x1="104.26" y1="265.34" x2="104.26" y2="224.23" gradientUnits="userSpaceOnUse"><stop offset="0" stop-color="#c9bff5"></stop><stop offset="1" stop-color="#e6daf5"></stop></linearGradient><linearGradient id="_ÂÁ_Ï_ÌÌ_È_ËÂÌÚ_46-2" x1="261.14" y1="232.59" x2="261.14" y2="186.57" xlink:href="#_ÂÁ_Ï_ÌÌ_È_ËÂÌÚ_46"></linearGradient><linearGradient id="_ÂÁ_Ï_ÌÌ_È_ËÂÌÚ_452-2" x1="208.12" y1="112.55" x2="220.17" y2="112.55" xlink:href="#_ÂÁ_Ï_ÌÌ_È_ËÂÌÚ_452"></linearGradient><linearGradient id="_ÂÁ_Ï_ÌÌ_È_ËÂÌÚ_452-3" x1="217.87" y1="112.71" x2="230.22" y2="112.71" xlink:href="#_ÂÁ_Ï_ÌÌ_È_ËÂÌÚ_452"></linearGradient><linearGradient id="_ÂÁ_Ï_ÌÌ_È_ËÂÌÚ_22" x1="42.73" y1="166.36" x2="92.66" y2="166.36" gradientUnits="userSpaceOnUse"><stop offset="0.02" stop-color="#fd9c89"></stop><stop offset="1" stop-color="#fd7c7d"></stop></linearGradient><linearGradient id="_ÂÁ_Ï_ÌÌ_È_ËÂÌÚ_9-2" x1="94.65" y1="178.42" x2="94.65" y2="144.42" xlink:href="#_ÂÁ_Ï_ÌÌ_È_ËÂÌÚ_9"></linearGradient><linearGradient id="_ÂÁ_Ï_ÌÌ_È_ËÂÌÚ_153" x1="243.48" y1="219.52" x2="264.64" y2="219.52" gradientUnits="userSpaceOnUse"><stop offset="0" stop-color="#9b68c0"></stop><stop offset="1" stop-color="#caebfd"></stop></linearGradient><linearGradient id="_ÂÁ_Ï_ÌÌ_È_ËÂÌÚ_153-2" x1="85.39" y1="255.72" x2="107.86" y2="255.72" xlink:href="#_ÂÁ_Ï_ÌÌ_È_ËÂÌÚ_153"></linearGradient><linearGradient id="_ÂÁ_Ï_ÌÌ_È_ËÂÌÚ_189-2" x1="-144.8" y1="-137.04" x2="-140.91" y2="-137.04" gradientTransform="translate(2 404.29) rotate(76.18)" xlink:href="#_ÂÁ_Ï_ÌÌ_È_ËÂÌÚ_189"></linearGradient><linearGradient id="_ÂÁ_Ï_ÌÌ_È_ËÂÌÚ_326" x1="98.73" y1="232.74" x2="104.16" y2="232.74" gradientUnits="userSpaceOnUse"><stop offset="0" stop-color="#b11a8d"></stop><stop offset="1" stop-color="#90117e"></stop></linearGradient><linearGradient id="_ÂÁ_Ï_ÌÌ_È_ËÂÌÚ_322" x1="99.5" y1="232.15" x2="104.25" y2="232.15" gradientUnits="userSpaceOnUse"><stop offset="0" stop-color="#b11a8d"></stop><stop offset="1" stop-color="#fc117e"></stop></linearGradient></defs><g class="cls-1"><g id="Layer_1" data-name="Layer 1"><path class="cls-2" d="M278.8,209.15c-4.08,8.08-8.84,14.82-14.16,19.66a37.47,37.47,0,0,1-4.86,3.78,30,30,0,0,1-4.87,2.58c-24.28,10-49.14-12.8-76.91-10.11-23.28,2.27-40,15.21-54.88,26.06a145.66,145.66,0,0,1-15.26,10.19c-1.4.78-2.82,1.49-4.22,2.13s-3.11,1.31-4.83,1.89h0c-21.52,7.37-57.85,7.1-74-8.77C8,239.93-12.5,186,33.87,116.61c51.52-77.17,192.3-87.84,229.92-62.32C302.71,80.67,301.15,164.81,278.8,209.15Z" transform="translate(-5.45 -30)"></path><path class="cls-3" d="M94.77,224.23s-11.12,5.83-9.37,21.88C85.4,246.11,97.49,239.87,94.77,224.23Z" transform="translate(-5.45 -30)"></path><path class="cls-4" d="M86.34,212.82s11.32-6.06,13.56-17.28S88.52,162,88.52,162L70.09,132.4s-10.93,9.87-13.16,20,10.28,37.37,10.28,37.37Z" transform="translate(-5.45 -30)"></path><path class="cls-5" d="M61.13,151.85s10.37,1.5,17.28,8.42l1-3.14-5.86-12-4.93,7.11A19.53,19.53,0,0,0,61.13,151.85Z" transform="translate(-5.45 -30)"></path><path class="cls-6" d="M43.73,62.57s-2.54,3.07-1.52,10.56c0,0,29.77,72.17,45.34,101.17a7.69,7.69,0,0,0,9.35,3.61l104.63-36.78-.93-2.66L93.92,174.34Z" transform="translate(-5.45 -30)"></path><path class="cls-7" d="M203.9,137.31l-107.14,38a5.7,5.7,0,0,1-7.12-3L43.19,68.18a5.61,5.61,0,0,1,3.3-7.71c29.68-8.59,52.19-14.95,75.06-20.58l.23-.06c13.79-3.4,27.69-6.53,43.37-9.74a5.34,5.34,0,0,1,5.37,2.42l0,0a6.38,6.38,0,0,1,.57,1.06c4.75,11.63,18.83,46.53,29,74.94l0,.13c2.84,7.9,5.36,15.3,7.3,21.56A5.72,5.72,0,0,1,203.9,137.31Z" transform="translate(-5.45 -30)"></path><path class="cls-7" d="M47,66.66,91.13,168.12,206,130.81,166.21,33C127.83,41.7,88.81,52.09,47,66.66Z" transform="translate(-5.45 -30)"></path><path class="cls-8" d="M122.78,122l32.15-10a7.7,7.7,0,0,1,9.29,4.15h0a7.73,7.73,0,0,1-4.48,10.52l-31.69,11a7.7,7.7,0,0,1-9.54-4.08l-.46-1A7.72,7.72,0,0,1,122.78,122Z" transform="translate(-5.45 -30)"></path><path class="cls-9" d="M122.72,121.11l31.84-9.89a7.63,7.63,0,0,1,9.2,4.1h0a7.63,7.63,0,0,1-4.43,10.4L128,136.61a7.64,7.64,0,0,1-9.45-4l-.46-1A7.63,7.63,0,0,1,122.72,121.11Z" transform="translate(-5.45 -30)"></path><polygon class="cls-10" points="68.75 49.54 150.84 24.93 169.5 68.02 88.59 94.26 68.75 49.54"></polygon><path class="cls-11" d="M129.53,124.9a2.36,2.36,0,0,1,0-1.74,2.09,2.09,0,0,1,1.32-1,2,2,0,0,1,1.67.06,2.29,2.29,0,0,1,1,1.4L135,128a2.3,2.3,0,0,1,0,1.74,2,2,0,0,1-1.31,1,2.07,2.07,0,0,1-1.67-.06,2.31,2.31,0,0,1-1-1.4Zm2.79,4a.89.89,0,0,0,.4.58.71.71,0,0,0,.56,0,.73.73,0,0,0,.43-.35.92.92,0,0,0,0-.71l-1.49-4.54a1,1,0,0,0-.4-.59.81.81,0,0,0-1,.33,1,1,0,0,0,0,.71Z" transform="translate(-5.45 -30)"></path><path class="cls-11" d="M139.27,128.8l-.1-.14a1.28,1.28,0,0,1-.1-.17,1.78,1.78,0,0,1-.12-.27c0-.11-.09-.25-.14-.42l-.44-1.32a1.29,1.29,0,0,0-.47-.76.85.85,0,0,0-.74,0l-.46.15,1.12,3.43-1.32.43-2.76-8.42,2-.65a1.78,1.78,0,0,1,2.59,1.29l.22.67a1.78,1.78,0,0,1-.31,2,1.19,1.19,0,0,1,.91.44,3.2,3.2,0,0,1,.56,1.06l.43,1.3a3.65,3.65,0,0,0,.2.54,2.27,2.27,0,0,0,.27.44Zm-3.81-6.75.85,2.59.51-.17a.85.85,0,0,0,.52-.38,1,1,0,0,0,0-.77l-.28-.83a1.11,1.11,0,0,0-.38-.61.65.65,0,0,0-.57,0Z" transform="translate(-5.45 -30)"></path><path class="cls-11" d="M138.58,119.7l2.09-.69a2,2,0,0,1,1.66,0,2.29,2.29,0,0,1,1,1.39l1.4,4.26a2.34,2.34,0,0,1,0,1.71,2,2,0,0,1-1.31,1l-2.09.69Zm1.71.77,2,6,.74-.24a.69.69,0,0,0,.43-.34.89.89,0,0,0,0-.7L142,120.82a1,1,0,0,0-.39-.58.74.74,0,0,0-.55,0Z" transform="translate(-5.45 -30)"></path><path class="cls-11" d="M146,121.2l1.82-.59.39,1.2-1.82.6.81,2.46,2.29-.75.39,1.21-3.61,1.18-2.76-8.42,3.61-1.18.4,1.2-2.29.75Z" transform="translate(-5.45 -30)"></path><path class="cls-11" d="M153.44,124.15l-.1-.14a.55.55,0,0,1-.1-.17,1.29,1.29,0,0,1-.12-.26c0-.12-.09-.25-.14-.42l-.44-1.33a1.38,1.38,0,0,0-.47-.76.89.89,0,0,0-.74,0l-.46.15,1.12,3.42-1.32.44-2.76-8.42,2-.66a1.78,1.78,0,0,1,2.59,1.3l.22.66a1.78,1.78,0,0,1-.31,2,1.24,1.24,0,0,1,.91.44,3.16,3.16,0,0,1,.56,1.07l.42,1.29a5.12,5.12,0,0,0,.21.54,1.68,1.68,0,0,0,.27.44Zm-3.81-6.74.84,2.58.52-.17a.84.84,0,0,0,.52-.38,1,1,0,0,0,0-.77l-.27-.83a1.07,1.07,0,0,0-.38-.6.61.61,0,0,0-.58,0Z" transform="translate(-5.45 -30)"></path><path class="cls-12" d="M169,152.58l2-3.58s-7.13-45.73-15.87-62l30.62,21.67,3.57,9.76-4.36,16.84-3,12.76Z" transform="translate(-5.45 -30)"></path><path class="cls-13" d="M189.24,120.27s.88,6.48,2,12.07,5.62,12.22,8.69,12.78,5.11-3.58,5.11-3.58l-9.2-21.27Z" transform="translate(-5.45 -30)"></path><path class="cls-14" d="M271.72,205.52c-12.28-8.69-30.68-25.29-31-27.16-1-5.39,5-53,2.82-59.38l0,0a1.76,1.76,0,0,0-.25-.48c-2.9-3.41-12.26-8.86-16.53-9.19a31.16,31.16,0,0,0-8.86.85c-2.9-.68-9.75-.34-9.75-.34s-3.53-.64-6.6-1a47.68,47.68,0,0,0-6.64.1S187.2,100.22,186,99s-4.93-4.93-10-9.37-13.63-16.35-15.84-17.38-8.19,2.43-8.35,5.28c-.11,1.94,1.36,7.67,7.32,15.33s16.36,13.47,18.4,15.52c1.12,1.1,5.29,5.07,9.79,10.13a51.74,51.74,0,0,0-4,9.06c-2.5,7-4.55,14.86-4.22,16.06.51,1.88,5.62,7.5,10.22,14.67s7.84,15.84,12.77,21.81,19.43,5.27,19.43,5.27c1.4,1.48,3.53,3.71,6.12,6.41l1.73,1.79,1.59,1.66,2.51,2.6,6.27,6.5,3.29,3.39.22.23c0,.07.12.12.16.17l0,0,.13.13c10.75,11.1,19.95,20.06,19.95,20.06C277.24,219,271.72,205.52,271.72,205.52Zm-80.26-63.47c.34-.68.65-1.37.93-2a54.42,54.42,0,0,0,3.28-10.93c.76,1.12,1.46,2.24,2.09,3.35,4.63,8,6.89,19.75,7.68,24.64.23,1.43.33,2.28.33,2.28C197.13,156.37,191.46,142.05,191.46,142.05Z" transform="translate(-5.45 -30)"></path><path class="cls-15" d="M151.93,77.17s1,6.19,8.52,14.28,17.72,13.46,21.05,14,6.08-2.36,6-3.66-18.15-16.61-22.83-23.6C164.63,78.16,158.31,68.85,151.93,77.17Z" transform="translate(-5.45 -30)"></path><path class="cls-16" d="M243,207.76l-3.29-3.39-6.27-6.5-2.51-2.6-1.59-1.66-1.73-1.79c-2.59-2.7-4.72-4.93-6.12-6.41,0,0-14.48.69-19.43-5.27,4.15-10.06-1.15-19.4-5.75-26.55s-16.73-8.05-17.24-9.93c-.33-1.2,1.72-9.1,4.22-16.06l.08-.07L192.39,140c-.28.67-1.31,1.57-.69,3.31,0,0,9,20.11,17.65,23.1,0,0,10.06-7.07-1.64-34.61-.79-6.71,1.81-9.54,6.44-9.44,4,.1,5.3-.8,9.9-2.58s9.71.28,12.14-.61,7.07-.73,7.07-.73l.25.48,0,0c2.18,6.38-3.81,54-2.82,59.38,0,0-9.63,4.07-10.48,9.57C229.49,192.77,240.4,205,243,207.76Z" transform="translate(-5.45 -30)"></path><path class="cls-17" d="M122.29,251.21c-5.76,5.51-29.92.43-29.92.43s-9.08-13.06-18-28.15c-3.6-6.14-7.17-12.6-10.09-18.66-10.1-21-21.59-71.23-21.59-71.23,1.51-7.23,14-23.32,14.72-24.32l0,0,6.15,14.13-.29.85,0,.07c-1.8,4.65-7.88,14.73-8.11,16.4S58,162.09,62.56,171s8,10.46,8,10.46c4.33-6.73,6.61-22.48,8.29-28s13.95-22.84,16.84-23.32,6.49,2.29,7.2,3.25a5.42,5.42,0,0,1,.73,3.63h0v.07a1.33,1.33,0,0,1,0,.28,24.64,24.64,0,0,1-1.9,7.07C100,148.74,96,153.47,92.8,157l0,0-.1.09A44.89,44.89,0,0,0,88.52,162c-1,1.93-1,6.73-1,6.73s5.29,14.19,4.81,28.36-7.45,16.59-7.45,16.59a59,59,0,0,0,3.37,5.1C101,236.18,122.29,251.21,122.29,251.21Z" transform="translate(-5.45 -30)"></path><path class="cls-18" d="M123.12,251.12a145.66,145.66,0,0,1-15.26,10.19c-1.4.78-2.82,1.49-4.22,2.13s-3.11,1.31-4.83,1.89h0A173.45,173.45,0,0,1,86.9,248.78c-.31-.5-.58-1-.83-1.42s-.48-.85-.68-1.25c0,0,7.27-4.64,9.38-21.88C94.77,224.23,111.64,242.34,123.12,251.12Z" transform="translate(-5.45 -30)"></path><path class="cls-19" d="M278.8,209.15c-4.08,8.08-8.84,14.82-14.16,19.66a37.47,37.47,0,0,1-4.86,3.78,138.69,138.69,0,0,1-16-20.08,39.18,39.18,0,0,1-.27-6.06c.13-5.45,1.27-13.53,6.19-19.88C249.69,186.57,269.56,203.94,278.8,209.15Z" transform="translate(-5.45 -30)"></path><path class="cls-15" d="M78.9,153.43s.75,3.29,8.86,1.66,16.14-15.52,15.91-18.1-8.62-5.67-8.62-5.67S80.82,145.17,78.9,153.43Z" transform="translate(-5.45 -30)"></path><path class="cls-5" d="M206,165.14s-13.88-16-14.57-23.09c0,0,5.67,14.32,14.31,17.3A19,19,0,0,1,206,165.14Z" transform="translate(-5.45 -30)"></path><path class="cls-13" d="M184.9,120.5c1.5,6.06,3.24,10.37,8.33,17.45l3.31-7.76a163,163,0,0,0-10.36-13.06S184.69,119.62,184.9,120.5Z" transform="translate(-5.45 -30)"></path><path class="cls-20" d="M208.12,109.77s9,4.24,12,5.57c0,0-5.88-4-9-5.57Z" transform="translate(-5.45 -30)"></path><path class="cls-21" d="M217.87,110.11s8.69,2.53,12.35,5.23C230.22,115.34,224.52,109.77,217.87,110.11Z" transform="translate(-5.45 -30)"></path><path class="cls-5" d="M182.73,129.08s7.33,5.16,8.73,13l1.77-4.1s-6.81-10.68-7.87-15.68Z" transform="translate(-5.45 -30)"></path><path class="cls-5" d="M194.88,127.91l-1.65,3.66s4-.48,5.39,2.45C198.62,134,195.77,129.1,194.88,127.91Z" transform="translate(-5.45 -30)"></path><path class="cls-22" d="M197,108.7s6.75,7.92,9.44,8.82,13.73-.58,14.05-1.15-11.5-6.45-12.41-6.6S198.66,108.51,197,108.7Z" transform="translate(-5.45 -30)"></path><path class="cls-22" d="M211.14,109.77s9.39,5.49,10.67,5.76a57.22,57.22,0,0,0,7.16-.19s-8.82-4.91-11.44-5.25A62.22,62.22,0,0,0,211.14,109.77Z" transform="translate(-5.45 -30)"></path><path class="cls-13" d="M221.45,185.41a4.09,4.09,0,0,1,4.72,1.16c2,2.39,4.72,8.7,4.72,8.7S224.6,188.91,221.45,185.41Z" transform="translate(-5.45 -30)"></path><path class="cls-23" d="M152.75,78.54a16.47,16.47,0,0,0,8.39,8.57c6.56,3.15,7.83-3.19,7.05-5s-7.62-8-7.62-8Z" transform="translate(-5.45 -30)"></path><path class="cls-24" d="M164,86.72a5.54,5.54,0,0,1-1.43-.14h0c-3.45-.78-8-4.44-9.37-6.7a1.85,1.85,0,0,1-.41-1.34c1-3.71,7.37-6.26,8.28-5.57a6.46,6.46,0,0,1,.72.74c1.75,2,5.68,7.27,6.2,7.9a1,1,0,0,1,.19.47A4.11,4.11,0,0,1,164,86.72Z" transform="translate(-5.45 -30)"></path><path class="cls-25" d="M164,86.72a5.54,5.54,0,0,1-1.43-.14h0s1.62-5.19,5.62-4.49A4.11,4.11,0,0,1,164,86.72Z" transform="translate(-5.45 -30)"></path><path class="cls-25" d="M161.75,73.71c-6.54-.18-8.43,6.09-8.43,6.09l-.16.08a1.85,1.85,0,0,1-.41-1.34c1-3.71,7.37-6.26,8.28-5.57A6.46,6.46,0,0,1,161.75,73.71Z" transform="translate(-5.45 -30)"></path><path class="cls-23" d="M90.72,135.28s-2.76,2.81-3,5.17,3,4.6,7.27,3.2,5.6-6.66,5.6-6.66Z" transform="translate(-5.45 -30)"></path><path class="cls-24" d="M101.89,133.62a10.13,10.13,0,0,1-.31,1.09c-.78,2.32-3,7.16-6.46,8.1l-.11,0c-3.86,1-6.73-1-6.81-2.79a1,1,0,0,1,0-.43c.45-2.15,3.39-5.78,5.87-7.65h0a9.25,9.25,0,0,1,.94-.64C97.65,129.8,102.08,132.51,101.89,133.62Z" transform="translate(-5.45 -30)"></path><path class="cls-25" d="M95,142.84c-3.86,1-6.73-1-6.81-2.79A4.91,4.91,0,0,1,92.35,139C94.43,139.37,94.9,141.61,95,142.84Z" transform="translate(-5.45 -30)"></path><path class="cls-25" d="M101.89,133.62a10.13,10.13,0,0,1-.31,1.09A7.54,7.54,0,0,0,94.11,132a9.25,9.25,0,0,1,.94-.64C97.65,129.8,102.08,132.51,101.89,133.62Z" transform="translate(-5.45 -30)"></path><path class="cls-26" d="M87.56,168.7s5.29,14.19,4.81,28.36-7.45,16.59-7.45,16.59a59,59,0,0,0,3.37,5.1c-6.36-1.39-11.91,2.94-13.88,4.74-3.6-6.14-7.17-12.6-10.09-18.66-10.1-21-21.59-71.23-21.59-71.23,1.51-7.23,14-23.32,14.72-24.32l0,0,0,.11,6.1,14-.29.85,0,.07c-1.8,4.65-7.88,14.73-8.11,16.4a33,33,0,0,0,.54,5.21h0c1,6.9,3.52,18.72,6.79,25.08,4.57,8.9,8,10.46,8,10.46s-1.86,5.14-1.82,6.24c.51,12.77,12.27,15.2,16.6,7.59,3-5.26,1.67-34,1.67-34a35.71,35.71,0,0,0,5.6-4.12A44.89,44.89,0,0,0,88.52,162C87.56,163.9,87.56,168.7,87.56,168.7Z" transform="translate(-5.45 -30)"></path><path class="cls-27" d="M62.91,171.65s3.49,11.12,6,14l3.14-7S66.49,178.66,62.91,171.65Z" transform="translate(-5.45 -30)"></path><path class="cls-28" d="M84.92,213.65s-6.93-2.12-7.82,0,14,8.72,14,8.72S85.46,215,84.92,213.65Z" transform="translate(-5.45 -30)"></path><path class="cls-29" d="M94.11,178.35l-1.45-2.72s4.37-21.77,9.08-31.21L88.52,162l-1,6.73,2.63,8.44S91.31,178.79,94.11,178.35Z" transform="translate(-5.45 -30)"></path><path class="cls-30" d="M251.76,223.49S250.59,205,260,195.27a48.56,48.56,0,0,0-6.94,29.79Z" transform="translate(-5.45 -30)"></path><path class="cls-31" d="M264.64,228.81a37.47,37.47,0,0,1-4.86,3.78,138.69,138.69,0,0,1-16-20.08,39.18,39.18,0,0,1-.27-6.06s6.68,12,18,20.07C262.69,227.36,263.73,228.13,264.64,228.81Z" transform="translate(-5.45 -30)"></path><path class="cls-30" d="M92.66,257.32s6.42-.39,9.87-7.55,2.3-15.2,2.3-15.2,1.4,10-1.28,16.1S92.66,257.32,92.66,257.32Z" transform="translate(-5.45 -30)"></path><path class="cls-32" d="M107.86,261.31c-1.4.78-2.82,1.49-4.22,2.13s-3.11,1.31-4.83,1.89c-2.65-3.42-8.63-11.24-11.91-16.55-.31-.5-.58-1-.83-1.42s-.48-.85-.68-1.25C85.39,246.11,97.25,257.77,107.86,261.31Z" transform="translate(-5.45 -30)"></path><path class="cls-33" d="M101.88,231.61s-2.29-2.87-2.29,3C99.59,234.57,105.19,235.61,101.88,231.61Z" transform="translate(-5.45 -30)"></path><path class="cls-34" d="M99.59,229.86a1.41,1.41,0,0,0-.86.57s1.75,3.86,4.61,5.18c0,0,.76-.72.82-1.18Z" transform="translate(-5.45 -30)"></path><path class="cls-35" d="M102.52,231.5c1.26,1.27,2,2.58,1.64,2.93s-1.66-.38-2.92-1.64-2-2.57-1.65-2.93S101.26,230.24,102.52,231.5Z" transform="translate(-5.45 -30)"></path><path class="cls-36" d="M63.64,123.36l-.29.85,0,.07c-1.8,4.65-7.88,14.73-8.11,16.4a33,33,0,0,0,.54,5.21l-2.12-4.09c-3.21-2.06-6.46-6.78-6.65-7.08,2.31,2.11,7.41,3.41,7.41,3.41s5.62-8.43,5.88-12.77-2.83-16.08-2.83-16.08l.09.06Z" transform="translate(-5.45 -30)"></path><path class="cls-5" d="M194.88,108.92l12.83,13.45S203.22,112.15,197,108.7A5.94,5.94,0,0,0,194.88,108.92Z" transform="translate(-5.45 -30)"></path><path class="cls-37" d="M217,132.16s3.89,30.19,9.15,41.58C226.17,173.74,224.05,144.22,217,132.16Z" transform="translate(-5.45 -30)"></path><path class="cls-37" d="M230.89,125.44l3.51,33.91S234.78,135.41,230.89,125.44Z" transform="translate(-5.45 -30)"></path><path class="cls-5" d="M99.54,147c3.32-5.26,4-8.58,4.1-9.65a24.64,24.64,0,0,1-1.9,7.07C100,148.74,96,153.47,92.8,157l0,0-.1.09A44.89,44.89,0,0,0,88.52,162c-1,1.93-1,6.73-1,6.73l-.5-7.47S95.44,153.47,99.54,147Z" transform="translate(-5.45 -30)"></path><path class="cls-13" d="M157.83,91.21s8.91,10.4,20.41,16.85c0,0,10.62,10.13,15,17.65,0,0-8.58-11.1-15.38-16.48C177.85,109.23,163.49,100.31,157.83,91.21Z" transform="translate(-5.45 -30)"></path><path class="cls-9" d="M117.19,87.62l-1.35,5.44,13,9s1.13-19.93,4.36-36.46c0,0-3.67,5.16-8.66,26.49Z" transform="translate(-5.45 -30)"></path><path class="cls-5" d="M241.34,206.1s2.67-14.5,7.91-18.94c0,0-5.41,6.44-5.91,21Z" transform="translate(-5.45 -30)"></path><path class="cls-5" d="M84.08,239.16s1.65,2,4.37-.06,6-12.74,6-12.74-1.26,11.74-7.1,17.89Z" transform="translate(-5.45 -30)"></path></g></g></svg> 